<?xml version="1.0" encoding="UTF-8"?>
<svg xmlns="http://www.w3.org/2000/svg" width="998" height="1096" viewBox="0 0 998 1096" fill="none">
  <path opacity="0.3" d="M28.8664 110.832C25.4993 152.17 26.0137 193.709 30.2732 235.056C32.1661 253.43 34.9403 272.181 45.5126 289.067C66.8389 323.129 114.161 342.131 163.929 352.801C177.222 355.663 190.69 357.936 203.884 359.743C261.558 367.614 320.425 370.401 378.779 368.091C436.586 365.791 494.89 358.037 552.906 365.152C584.783 369.062 617.226 377.505 644.54 390.57C672.565 403.994 695.206 422.763 704.238 446.283C714.637 473.395 705.478 502.491 687.703 527.099C684.26 531.86 680.519 536.473 676.547 540.948C660.029 559.562 639.485 576.227 618.789 591.932C589.353 614.375 559.497 636.809 547.273 666.226C535.596 694.309 544.686 727.635 573.223 749.493C613.845 780.618 677.146 784.032 733.109 791.246C737.353 791.795 741.592 792.377 745.827 793.002C812.622 802.824 878.164 822.164 925.712 858.001C976.294 896.073 1001.82 955.871 972.705 1004.7" stroke="#ECECEC" stroke-width="0.809239" stroke-miterlimit="10"></path>
  <path opacity="0.4" d="M45.4681 105.848C42.1057 146.437 42.8081 187.239 47.3758 227.804C49.4074 245.832 52.332 264.198 62.6942 280.782C83.5999 314.236 129.339 333.355 177.582 344.477C190.477 347.472 203.549 349.894 216.377 351.867C272.406 360.45 329.775 364.073 386.8 362.713C443.279 361.352 500.391 354.486 557.21 361.961C590.152 366.293 623.71 374.92 652.178 388.255C681.325 401.928 705.192 421.237 714.561 445.565C725.267 473.397 715.56 503.159 697.508 528.548C694.017 533.457 690.237 538.217 686.241 542.845C669.634 562.09 649.297 579.59 629.167 596.205C600.503 620.018 572.934 643.974 562.043 674.124C552.105 701.625 560.701 733.803 588.368 755.234C627.762 785.756 688.663 790.023 742.233 798.013C746.294 798.62 750.35 799.26 754.401 799.938C818.288 810.643 880.293 830.499 924.704 865.833C971.953 903.351 994.86 961.295 965.549 1008.38" stroke="#E2E2E2" stroke-width="0.809239" stroke-miterlimit="10"></path>
  <path opacity="0.5" d="M62.0613 100.863C58.7042 140.709 59.5939 180.77 64.4763 220.548C66.6386 238.224 69.7212 256.211 79.8807 272.493C100.366 305.34 144.53 324.582 191.24 336.151C203.738 339.272 216.414 341.844 228.87 343.987C283.254 353.282 339.132 357.736 394.815 357.331C449.958 356.914 505.887 350.969 561.507 358.77C595.513 363.54 630.176 372.34 659.809 385.934C690.084 399.855 715.167 419.705 724.879 444.841C735.893 473.393 725.631 503.82 707.317 529.99C703.779 535.041 699.959 539.954 695.946 544.729C679.251 564.6 659.129 582.939 639.551 600.47C611.659 625.646 586.356 651.074 576.814 682.007C568.524 708.89 576.71 739.957 603.506 760.962C641.673 790.886 700.168 796.001 751.361 804.766C755.239 805.431 759.12 806.129 762.988 806.865C823.961 818.459 882.445 838.819 923.715 873.656C967.634 910.62 987.927 966.706 958.425 1012.06" stroke="#D6D6D6" stroke-width="0.809239" stroke-miterlimit="10"></path>
  <path opacity="0.6" d="M78.6615 95.8783C75.3097 134.982 76.3939 174.302 81.576 213.298C83.8763 230.623 87.109 248.23 97.0587 264.218C117.123 296.451 159.713 315.817 204.891 327.838C216.985 331.087 229.265 333.812 241.355 336.12C294.094 346.128 348.475 351.412 402.83 351.961C456.638 352.482 511.386 347.495 565.804 355.584C600.879 360.797 636.637 369.76 667.427 383.624C698.819 397.793 725.125 418.189 735.171 444.122C746.498 473.393 735.683 504.485 717.101 531.437C713.516 536.634 709.657 541.695 705.619 546.622C688.836 567.119 668.869 586.266 649.904 604.743C622.699 631.246 599.698 658.139 591.551 689.902C584.821 716.12 592.69 746.13 618.617 766.703C655.548 796.03 711.647 801.998 760.463 811.533C764.166 812.256 767.857 813.012 771.542 813.806C829.61 826.288 884.562 847.158 922.701 881.493C963.299 917.903 980.968 972.133 951.274 1015.75" stroke="#C9C9C9" stroke-width="0.809239" stroke-miterlimit="10"></path>
  <path opacity="0.7" d="M95.2544 90.8983C91.9081 129.26 93.179 167.84 98.6675 206.05C101.105 223.024 104.48 240.247 114.228 255.939C133.871 287.566 174.888 307.054 218.534 319.522C230.231 322.897 242.115 325.772 253.834 328.25C304.928 338.969 357.818 345.084 410.838 346.587C463.318 348.045 516.866 344.044 570.095 352.393C606.231 358.066 643.087 367.174 675.038 381.307C707.546 395.725 735.071 416.662 745.459 443.402C757.092 473.393 745.732 505.149 726.881 532.876C723.25 538.221 719.351 543.423 715.29 548.503C698.419 569.626 678.661 589.612 660.254 608.998C633.805 636.864 612.996 665.147 606.282 697.777C601.028 723.3 608.662 752.279 633.711 772.42C669.417 801.151 723.119 807.966 769.554 818.276C773.074 819.057 776.589 819.87 780.085 820.722C835.25 834.092 886.68 855.472 921.676 889.306C958.95 925.169 974.011 977.543 944.119 1019.42" stroke="#BEBEBE" stroke-width="0.809239" stroke-miterlimit="10"></path>
  <path opacity="0.8" d="M111.855 85.912C108.514 123.532 109.972 161.373 115.773 198.803C118.341 215.425 121.873 232.27 131.41 247.661C150.633 278.682 190.11 298.227 232.193 311.208C243.499 314.693 254.982 317.739 266.328 320.387C315.779 331.818 367.171 338.762 418.857 341.218C470.001 343.619 522.357 340.619 574.395 349.213C611.59 355.35 649.549 364.599 682.644 378.996C716.272 393.662 745.006 415.139 755.728 442.686C767.666 473.397 755.754 505.817 736.645 534.325C732.959 539.811 729.029 545.166 724.951 550.398C707.994 572.147 688.436 592.966 670.597 613.272C644.911 642.5 626.229 672.131 621 705.671C617.138 730.472 624.62 758.447 648.801 778.162C683.28 806.297 734.58 813.964 778.643 825.043C781.981 825.887 785.314 826.759 788.626 827.663C840.89 841.915 888.794 863.81 920.665 897.137C954.617 932.447 967.066 982.968 936.986 1023.12" stroke="#ADADAD" stroke-width="0.809239" stroke-miterlimit="10"></path>
  <path opacity="0.9" d="M128.455 80.9249C125.12 117.804 126.771 154.905 132.871 191.551C135.576 207.822 139.257 224.289 148.584 239.38C167.385 269.795 205.29 289.458 245.844 302.89C256.753 306.502 267.84 309.702 278.814 312.515C326.63 324.656 376.525 332.43 426.876 335.84C476.692 339.177 527.836 337.211 578.697 346.016C616.948 352.633 655.999 362.006 690.25 376.673C724.989 391.588 754.93 413.604 765.998 441.953C778.248 473.382 765.787 506.473 746.412 535.755C742.679 541.389 738.71 546.891 734.608 552.27C717.565 574.644 698.217 596.302 680.935 617.516C656.014 648.112 639.381 679.057 635.718 713.533C633.164 737.593 640.569 764.59 663.88 783.875C697.127 811.409 746.034 819.928 787.726 831.775C790.889 832.677 794.032 833.606 797.169 834.563C846.535 849.702 890.923 872.106 919.665 904.933C950.298 939.691 960.147 988.364 929.879 1026.78" stroke="#9E9E9E" stroke-width="0.809239" stroke-miterlimit="10"></path>
  <path d="M145.047 75.9368C141.718 112.076 143.554 148.438 149.959 184.305C152.801 200.226 156.631 216.309 165.748 231.105C184.128 260.914 220.462 280.695 259.487 294.579C269.999 298.319 280.684 301.667 291.294 304.65C337.467 317.502 385.866 326.105 434.889 330.467C483.371 334.741 533.311 333.83 582.992 342.823C622.291 349.938 662.437 359.419 697.834 374.355C733.681 389.518 764.833 412.074 776.233 441.229C788.786 473.378 775.776 507.133 756.144 537.195C752.365 542.971 748.358 548.625 744.239 554.156C727.111 577.155 707.973 599.657 691.249 621.78C667.091 653.742 652.43 685.977 650.399 721.408C649.06 744.708 656.485 770.742 678.928 789.602C710.95 816.54 757.459 825.905 796.783 838.527C799.763 839.486 802.731 840.473 805.679 841.488C852.142 857.514 893.018 880.427 918.641 912.754C945.96 946.96 953.204 993.781 922.75 1030.46" stroke="#949494" stroke-width="0.809239" stroke-miterlimit="10"></path>
  <path d="M161.647 70.9528C158.331 106.352 160.346 141.977 167.062 177.059C170.033 192.63 174.011 208.335 182.925 222.832C200.885 252.036 235.656 271.934 273.146 286.27C283.262 290.136 293.552 293.638 303.79 296.786C348.321 310.349 395.232 319.78 442.914 325.094C490.068 330.31 538.791 330.47 587.299 339.631C627.636 347.253 668.88 356.831 705.428 372.031C742.386 387.441 774.739 410.538 786.478 440.499C799.333 473.367 785.782 507.786 765.887 538.628C762.062 544.551 758.009 550.352 753.874 556.03C736.661 579.654 717.741 602.994 701.575 626.025C678.18 659.353 665.392 692.862 665.086 729.268C664.896 751.798 672.407 776.881 693.975 795.315C724.772 821.658 768.893 831.875 805.842 845.265C808.641 846.282 811.427 847.327 814.192 848.4C857.762 865.312 895.13 888.728 917.631 920.561C941.648 954.216 946.291 999.192 915.644 1034.14" stroke="#8B8B8B" stroke-width="0.809239" stroke-miterlimit="10"></path>
  <path d="M178.239 65.962C174.929 100.621 177.136 135.509 184.148 169.813C187.255 185.034 191.382 200.362 200.093 214.559C217.631 243.153 250.835 263.18 286.797 277.961C296.517 281.96 306.413 285.61 316.278 288.923C359.17 303.196 404.585 313.456 450.94 319.716C496.76 325.867 544.267 327.115 591.609 336.437C632.981 344.578 675.327 354.241 713.007 369.711C751.066 385.369 784.625 409.005 796.693 439.768C809.857 473.354 795.76 508.438 775.595 540.054C771.724 546.124 767.633 552.072 763.482 557.902C746.186 582.156 727.475 606.329 711.868 630.272C689.242 664.966 678.221 699.74 679.735 737.131C680.617 758.888 688.287 783.027 708.988 801.032C738.555 826.781 780.288 837.842 814.874 852.006C817.498 853.081 820.102 854.183 822.678 855.314C863.358 873.108 897.128 897.067 916.606 928.371C937.223 961.504 939.362 1004.6 908.539 1037.82" stroke="#808080" stroke-width="0.809239" stroke-miterlimit="10"></path>
  <path d="M194.838 60.968C191.534 94.8885 193.926 129.039 201.24 162.561C204.483 177.432 208.758 192.382 217.259 206.28C234.376 234.269 266.012 254.415 300.449 269.647C309.773 273.772 319.274 277.572 328.776 281.054C370.028 296.037 413.956 307.125 458.971 314.337C503.464 321.423 549.742 323.779 595.923 333.235C638.322 341.917 681.765 351.644 720.588 367.377C759.746 383.284 794.506 407.46 806.911 439.028C820.375 473.334 805.733 509.081 785.315 541.476C781.398 547.688 777.269 553.789 773.095 559.765C755.716 584.645 737.224 609.66 722.166 634.506C700.31 670.565 690.936 706.605 694.383 744.978C696.269 765.963 704.164 789.154 723.991 806.729C752.335 831.879 791.677 843.791 823.902 858.727C826.344 859.86 828.766 861.021 831.168 862.203C868.961 880.883 899.224 905.346 915.596 936.156C932.906 968.739 932.466 1009.99 901.454 1041.48" stroke="#737373" stroke-width="0.809239" stroke-miterlimit="10"></path>
  <path d="M211.43 55.9722C208.132 89.1543 210.708 122.568 218.331 155.313C221.702 169.835 226.131 184.402 234.422 198.006C251.119 225.392 281.19 245.661 314.102 261.339C323.031 265.591 332.13 269.544 341.269 273.191C380.883 288.884 423.317 300.805 467.006 308.963C510.166 316.989 555.217 320.459 600.237 330.039C643.645 339.272 688.195 349.051 728.151 365.054C768.411 381.209 804.362 405.924 817.095 438.298C830.858 473.322 815.681 509.733 795.003 542.909C791.034 549.267 786.874 555.515 782.677 561.644C765.223 587.148 747.01 613.021 732.434 638.759C711.452 676.22 703.494 713.498 708.995 752.844C711.825 773.059 719.995 795.301 738.963 812.452C766.086 837.008 803.047 849.771 832.906 865.474C835.167 866.665 837.415 867.883 839.627 869.124C874.537 888.689 901.299 913.656 914.57 943.973C928.584 976.001 925.556 1015.41 894.364 1045.18" stroke="#656565" stroke-width="0.809239" stroke-miterlimit="10"></path>
  <path d="M228.029 50.9775C224.738 83.4219 227.506 116.1 235.422 148.063C238.929 162.241 243.497 176.426 251.585 189.737C267.861 216.519 296.369 236.917 327.757 253.035C336.284 257.419 344.997 261.516 353.765 265.333C391.743 281.735 432.693 294.484 475.05 303.592C516.878 312.553 560.695 317.159 604.568 326.844C648.983 336.651 694.635 346.461 735.729 362.733C777.079 379.136 814.226 404.39 827.292 437.565C841.362 473.308 825.642 510.383 804.706 544.337C800.692 550.843 796.494 557.238 792.282 563.513C774.746 589.641 756.744 616.352 742.725 642.997C722.511 681.823 715.935 720.399 723.629 760.689C727.344 780.147 735.854 801.434 753.949 818.155C779.845 842.118 814.427 855.725 841.931 872.202C844.018 873.455 846.077 874.726 848.109 876.024C880.133 896.475 903.413 921.945 913.574 951.77C924.304 983.242 918.686 1020.82 887.315 1048.85" stroke="#595959" stroke-width="0.809239" stroke-miterlimit="10"></path>
  <path d="M244.628 45.9736C241.343 77.6806 244.295 109.623 252.511 140.811C256.152 154.64 260.867 168.448 268.746 181.46C284.594 207.639 311.548 228.161 341.415 244.725C349.547 249.235 357.867 253.486 366.264 257.467C402.615 274.579 442.066 288.155 483.093 298.214C523.597 308.109 566.176 313.861 608.902 323.648C654.308 334.044 701.079 343.868 743.291 360.404C785.729 377.055 824.068 402.849 837.46 436.83C851.826 473.291 835.567 511.03 814.381 545.763C810.321 552.411 806.087 558.953 801.852 565.385C784.236 592.138 766.452 619.686 752.982 647.244C733.528 687.428 728.194 727.343 738.215 768.548C742.762 787.271 751.661 807.575 768.893 823.873C793.57 847.243 825.769 861.694 850.922 878.938C852.828 880.249 854.706 881.578 856.557 882.934C885.706 904.265 905.503 930.243 912.566 959.57C920.012 990.488 911.823 1026.22 880.274 1052.54" stroke="#4E4E4E" stroke-width="0.809239" stroke-miterlimit="10"></path>
  <path d="M261.219 40.9636C257.94 71.9284 261.075 103.136 269.598 133.548C273.366 147.029 278.234 160.461 285.903 173.174C301.332 198.751 326.72 219.402 355.074 236.406C362.813 241.048 370.74 245.447 378.768 249.593C413.486 267.414 451.456 281.817 491.154 292.827C530.328 303.661 571.663 310.564 613.258 320.435C659.644 331.443 707.531 341.259 750.872 358.065C794.403 374.964 833.915 401.298 847.647 436.084C862.31 473.264 845.519 511.667 824.076 547.174C819.972 553.969 815.7 560.658 811.45 567.237C793.754 594.614 776.182 622.999 763.267 651.464C744.579 693.013 740.327 734.302 752.82 776.379C758.163 794.38 767.485 813.69 783.847 829.565C807.307 852.337 837.135 867.644 859.933 885.654C861.666 887.023 863.363 888.409 865.026 889.818C891.305 912.034 907.625 938.516 911.597 967.351C915.779 997.715 905.003 1031.62 873.277 1056.2" stroke="#3E3E3E" stroke-width="0.809239" stroke-miterlimit="10"></path>
  <path d="M277.819 35.9467C274.546 66.1753 277.871 96.6486 286.685 126.286C290.587 139.418 295.601 152.468 303.061 164.889C318.07 189.858 341.895 210.644 368.74 228.088C376.078 232.857 383.613 237.405 391.279 241.72C424.368 260.25 460.851 275.481 499.229 287.441C537.084 299.209 577.162 307.279 617.633 317.224C664.985 328.859 713.996 338.652 758.458 355.726C803.071 372.874 843.768 399.747 857.823 435.334C872.782 473.233 855.461 512.3 833.763 548.587C829.613 555.523 825.305 562.364 821.033 569.095C803.257 597.098 785.904 626.319 773.543 655.696C755.621 698.609 752.284 741.331 767.409 784.223C773.512 801.535 783.282 819.824 798.791 835.271C821.029 857.451 848.49 873.601 868.944 892.384C870.497 893.811 872.014 895.255 873.504 896.721C896.918 919.822 909.849 946.806 910.655 975.151C911.653 1004.97 898.228 1037.02 866.319 1059.89" stroke="#323232" stroke-width="0.809239" stroke-miterlimit="10"></path>
  <path d="M294.411 30.9268C291.145 60.4198 294.651 90.1594 303.763 119.017C307.8 131.801 312.959 144.476 320.217 156.597C334.807 180.965 357.031 201.92 382.411 219.765C389.343 224.678 396.5 229.362 403.798 233.842C435.26 253.087 470.267 269.139 507.313 282.049C543.843 294.751 582.668 303.999 622.024 314.007C670.326 326.292 720.481 336.038 766.06 353.377C811.752 370.773 853.632 398.186 868.018 434.578C883.279 473.196 865.415 512.928 843.469 549.994C839.275 557.077 834.93 564.065 830.643 570.943C812.787 599.57 795.645 629.629 783.838 659.913C766.671 704.185 764.094 748.424 782.007 792.046C788.847 808.692 799.093 825.933 813.735 840.952C834.761 862.54 859.852 879.54 877.961 899.09C879.333 900.575 880.678 902.076 881.98 903.6C902.536 927.586 912.003 955.079 909.73 982.928C907.463 1012.19 891.476 1042.42 859.399 1063.55" stroke="#242424" stroke-width="0.809239" stroke-miterlimit="10"></path>
  <path d="M311.01 25.843C307.75 54.6023 311.439 83.6101 320.859 111.696C325.023 124.132 330.329 136.432 337.388 148.256C351.565 172.024 372.238 193.099 396.123 211.396C402.665 216.435 409.435 221.268 416.367 225.918C446.216 245.874 479.754 262.754 515.497 276.614C550.724 290.254 588.297 300.682 626.56 310.752C675.821 323.715 727.132 333.389 773.85 350.998C820.642 368.643 863.71 396.602 878.424 433.798C893.984 473.136 875.585 513.534 853.378 551.382C849.131 558.613 844.754 565.749 840.444 572.779C822.503 602.038 805.573 632.929 794.307 664.127C777.897 709.766 775.9 755.598 796.772 799.879C804.324 815.899 815.076 832.054 828.864 846.651C848.687 867.649 871.428 885.494 887.201 905.817C888.401 907.359 889.56 908.924 890.683 910.5C908.384 935.368 914.405 963.377 909.057 990.731C903.536 1019.45 884.984 1047.83 852.714 1067.25" stroke="#1B1B1B" stroke-width="0.809239" stroke-miterlimit="10"></path>
  <path d="M327.611 20.7368C324.363 48.7629 328.236 77.0397 337.949 104.348C342.248 116.438 347.701 128.357 354.556 139.89C368.323 163.059 387.457 184.259 409.844 203.003C415.998 208.17 422.381 213.157 428.95 217.977C457.192 238.643 489.273 256.351 523.713 271.156C557.635 285.731 593.963 297.348 631.147 307.471C681.352 321.134 733.845 330.713 781.698 348.593C829.589 366.488 873.856 394.989 888.906 432.987C904.767 473.047 885.832 514.113 863.353 552.743C859.06 560.116 854.645 567.405 850.31 574.582C832.282 604.468 815.554 636.198 804.834 668.305C789.178 715.306 787.605 762.839 811.598 807.678C819.85 823.105 831.119 838.147 844.05 852.318C862.666 872.721 883.063 891.416 896.512 912.513C897.534 914.119 898.521 915.736 899.458 917.37C914.318 943.124 916.882 971.644 908.469 998.504C899.691 1026.68 878.576 1053.23 846.116 1070.92" stroke="#0F0F0F" stroke-width="0.809239" stroke-miterlimit="10"></path>
  <path d="M344.204 15.6307C336.635 79.2624 368.765 144.27 423.56 194.617C478.347 244.959 554.374 281.294 635.728 304.196C686.856 318.587 740.549 328.043 789.544 346.188C838.53 364.333 883.995 393.375 899.374 432.182C918.628 480.751 887.331 530.661 860.177 576.39C815.524 651.59 780.557 739.292 826.412 815.482C849.25 853.432 890.485 884.889 908.242 924.239C932.856 978.796 903.355 1043.37 839.544 1074.59" stroke="black" stroke-width="0.809239" stroke-miterlimit="10"></path>
</svg>
